<?xml version="1.0" encoding="UTF-8" standalone="no"?>
<svg
   xmlns:dc="http://purl.org/dc/elements/1.1/"
   xmlns:cc="http://creativecommons.org/ns#"
   xmlns:rdf="http://www.w3.org/1999/02/22-rdf-syntax-ns#"
   xmlns:svg="http://www.w3.org/2000/svg"
   xmlns="http://www.w3.org/2000/svg"
   xmlns:sodipodi="http://sodipodi.sourceforge.net/DTD/sodipodi-0.dtd"
   xmlns:inkscape="http://www.inkscape.org/namespaces/inkscape"
   version="1.0"
   width="237.000000pt"
   height="237.000000pt"
   viewBox="0 0 237.000000 237.000000"
   preserveAspectRatio="xMidYMid meet"
   id="svg4275"
   inkscape:version="0.91 r13725"
   sodipodi:docname="safari-pinned-tab.svg">
  <defs
     id="defs4285" />
  <sodipodi:namedview
     pagecolor="#ffffff"
     bordercolor="#666666"
     borderopacity="1"
     objecttolerance="10"
     gridtolerance="10"
     guidetolerance="10"
     inkscape:pageopacity="0"
     inkscape:pageshadow="2"
     inkscape:window-width="1280"
     inkscape:window-height="961"
     id="namedview4283"
     showgrid="false"
     inkscape:zoom="1.2725738"
     inkscape:cx="138.59168"
     inkscape:cy="147.798"
     inkscape:window-x="0"
     inkscape:window-y="30"
     inkscape:window-maximized="1"
     inkscape:current-layer="svg4275" />
  <metadata
     id="metadata4277">
Created by potrace 1.11, written by Peter Selinger 2001-2013
<rdf:RDF>
  <cc:Work
     rdf:about="">
    <dc:format>image/svg+xml</dc:format>
    <dc:type
       rdf:resource="http://purl.org/dc/dcmitype/StillImage" />
  </cc:Work>
</rdf:RDF>
</metadata>
  <rect
     style="opacity:0.98000004;fill:#000000;fill-opacity:1;stroke:#000000;stroke-width:4.80000019;stroke-linecap:round;stroke-linejoin:round;stroke-miterlimit:4;stroke-dasharray:none;stroke-opacity:1"
     id="rect4292"
     width="193.62334"
     height="169.10611"
     x="23.259947"
     y="33.946949" />
  <path
     style="fill:#000000;stroke:none"
     inkscape:connector-curvature="0"
     id="path4281"
     d="M 0,118.5 0,237 118.5,237 237,237 237,118.5 237,0 118.5,0 0,0 0,118.5 Z M 108.1,97 c 3.7,10.2 7.3,20.7 8,23.4 l 1.2,4.9 5.9,-17.4 c 3.3,-9.6 6.9,-20.2 8.1,-23.7 l 2.1,-6.2 12.8,0 12.8,0 0,42 0,42 -11.1,0 -11.2,0 0.7,-20.8 c 0.3,-11.4 0.9,-22.3 1.1,-24.2 0.3,-1.9 -1.4,1.9 -3.8,8.5 -2.5,6.6 -6,16 -7.8,21 l -3.4,9 -6.5,0 -6.5,0 -2.4,-6.5 c -1.3,-3.6 -4.8,-13.3 -7.8,-21.5 -2.9,-8.3 -5.1,-13.9 -4.7,-12.5 0.3,1.4 0.8,12.5 1.1,24.7 l 0.5,22.3 -10.6,0 -10.6,0 0,-42 0,-42.1 12.6,0.3 12.7,0.3 6.8,18.5 z" />
  <text
     xml:space="preserve"
     style="font-style:normal;font-variant:normal;font-weight:bold;font-stretch:normal;font-size:32px;line-height:125%;font-family:'Ubuntu Mono';-inkscape-font-specification:'Ubuntu Mono Bold';letter-spacing:0px;word-spacing:0px;fill:#000000;fill-opacity:1;stroke:none;stroke-width:1px;stroke-linecap:butt;stroke-linejoin:miter;stroke-opacity:1"
     x="51.549068"
     y="162.81963"
     id="text4288"
     sodipodi:linespacing="125%"><tspan
       sodipodi:role="line"
       id="tspan4290"
       x="51.549068"
       y="162.81963"
       style="font-style:normal;font-variant:normal;font-weight:bold;font-stretch:normal;font-size:144px;font-family:'Ubuntu Mono';-inkscape-font-specification:'Ubuntu Mono Bold';fill:#ffffff">GL</tspan></text>
</svg>
